<?xml version="1.0" standalone="no"?><!DOCTYPE svg PUBLIC "-//W3C//DTD SVG 1.1//EN" "http://www.w3.org/Graphics/SVG/1.1/DTD/svg11.dtd"><svg t="1733991626659" class="icon" viewBox="0 0 1291 1024" version="1.1" xmlns="http://www.w3.org/2000/svg" p-id="5704" xmlns:xlink="http://www.w3.org/1999/xlink" width="161.375" height="128"><path d="M1127.905882 4.116078a34.521516 34.521516 0 0 1 34.227033 34.227033 184.005438 184.005438 0 0 1-68.828863 145.414693l30.010562 233.498771c94.094222 52.290928 157.133804 148.915033 165.9817 256.153935a33.678222 33.678222 0 0 1-33.745151 36.428967l-250.371346-1.57281 1.720052 273.441464a33.62468 33.62468 0 0 1-33.852235 33.852235 34.360889 34.360889 0 0 1-34.227033-34.227033l-1.679895-273.468235-250.404811-1.539346a34.307346 34.307346 0 0 1-24.074039-10.106144l-0.936993-0.936994a34.628601 34.628601 0 0 1-9.142379-25.794091 317.018353 317.018353 0 0 1 178.483869-262.384941l26.235817-224.804811a188.911268 188.911268 0 0 1-70.722928-146.271372A33.62468 33.62468 0 0 1 820.431477 2.175163l307.467713 1.940915z" p-id="5705" fill="#333333"></path><path d="M2.951529 5.996758m93.699347 0l414.385359 0q93.699346 0 93.699347 93.699347l0 27.969254q0 93.699346-93.699347 93.699347l-414.385359 0q-93.699346 0-93.699347-93.699347l0-27.969254q0-93.699346 93.699347-93.699347Z" p-id="5706" fill="#333333"></path><path d="M2.951529 407.17051m93.699347 0l414.385359 0q93.699346 0 93.699347 93.699346l0 27.969255q0 93.699346-93.699347 93.699347l-414.385359 0q-93.699346 0-93.699347-93.699347l0-27.969255q0-93.699346 93.699347-93.699346Z" p-id="5707" fill="#333333"></path><path d="M2.951529 804.114405m93.699347 0l414.385359 0q93.699346 0 93.699347 93.699347l0 27.969255q0 93.699346-93.699347 93.699346l-414.385359 0q-93.699346 0-93.699347-93.699346l0-27.969255q0-93.699346 93.699347-93.699347Z" p-id="5708" fill="#333333"></path></svg>