<?xml version="1.0" standalone="no"?><!DOCTYPE svg PUBLIC "-//W3C//DTD SVG 1.1//EN" "http://www.w3.org/Graphics/SVG/1.1/DTD/svg11.dtd"><svg t="1733991566599" class="icon" viewBox="0 0 1300 1024" version="1.1" xmlns="http://www.w3.org/2000/svg" p-id="4287" xmlns:xlink="http://www.w3.org/1999/xlink" width="162.5" height="128"><path d="M442.677472 3.806368a31.923975 31.923975 0 0 1 31.651649 31.651649 170.16011 170.16011 0 0 1-63.643706 134.473092l27.752444 215.929362c87.014185 48.356343 145.310409 137.710052 153.492552 236.879856a31.144134 31.144134 0 0 1-31.206026 33.687902l-231.532374-1.454466 1.590628 252.866601a31.09462 31.09462 0 0 1-31.305054 31.305054 31.775434 31.775434 0 0 1-31.651649-31.65165l-1.553493-252.891358-231.563321-1.423519a31.72592 31.72592 0 0 1-22.262609-9.345716l-0.86649-0.86649a32.023003 32.023003 0 0 1-8.454469-23.853238A293.164585 293.164585 0 0 1 168.18575 376.47143l24.261726-207.88957A174.696805 174.696805 0 0 1 127.039844 33.316549 31.09462 31.09462 0 0 1 158.344897 2.011495l284.332575 1.794873z" p-id="4288" fill="#333333"></path><path d="M646.407889 5.545537m86.649021 0l383.205297 0q86.649021 0 86.649021 86.649022l0 25.864733q0 86.649021-86.649021 86.649021l-383.205297 0q-86.649021 0-86.649021-86.649021l0-25.864733q0-86.649021 86.649021-86.649022Z" p-id="4289" fill="#333333"></path><path d="M646.407889 376.533322m86.649021 0l383.205297 0q86.649021 0 86.649021 86.649022l0 25.864733q0 86.649021-86.649021 86.649021l-383.205297 0q-86.649021 0-86.649021-86.649021l0-25.864733q0-86.649021 86.649021-86.649022Z" p-id="4290" fill="#333333"></path><path d="M646.407889 743.609523m86.649021 0l383.205297 0q86.649021 0 86.649021 86.649021l0 25.864733q0 86.649021-86.649021 86.649021l-383.205297 0q-86.649021 0-86.649021-86.649021l0-25.864733q0-86.649021 86.649021-86.649021Z" p-id="4291" fill="#333333"></path></svg>