<?xml version="1.0" standalone="no"?><!DOCTYPE svg PUBLIC "-//W3C//DTD SVG 1.1//EN" "http://www.w3.org/Graphics/SVG/1.1/DTD/svg11.dtd"><svg t="1733991208392" class="icon" viewBox="0 0 1024 1024" version="1.1" xmlns="http://www.w3.org/2000/svg" p-id="7591" xmlns:xlink="http://www.w3.org/1999/xlink" width="128" height="128" ><path fill="currentColor" d="M384.32 57.216c58.304 0 105.6 47.36 105.6 105.6v704a105.6 105.6 0 0 1-105.6 105.6h-192a105.6 105.6 0 0 1-105.6-105.6v-704c0-58.24 47.296-105.6 105.6-105.6h192z m0 83.2h-192a22.4 22.4 0 0 0-22.4 22.4v704c0 12.416 10.048 22.4 22.4 22.4h192a22.4 22.4 0 0 0 22.4-22.4v-704a22.4 22.4 0 0 0-22.4-22.4z" p-id="7592"></path><path fill="currentColor" d="M756.992 889.216v83.2h-64v-83.2h64z m-136.064-10.56a22.4 22.4 0 0 0 19.072 10.56h1.792v83.2H640a105.6 105.6 0 0 1-89.664-49.792l70.592-43.968z m226.56 4.352l57.536 60.16c-16.32 15.616-37.312 25.664-64.448 28.8l-31.744 0.448-1.28-83.2 27.264-0.128a22.208 22.208 0 0 0 12.672-6.08z m90.112-81.088v64h-83.2v-64h83.2z m-320-21.952v64h-83.2v-64h83.2z m320-93.248v64h-83.2v-64h83.2z m-320-21.952v64h-83.2v-64h83.2z m320-208.448v64h-83.2v-64h83.2z m-320 0v64h-83.2v-64h83.2z m320-115.2v64h-83.2v-64h83.2z m-320 0v64h-83.2v-64h83.2z m320-115.2v64h-83.2v-64h83.2z m-320 0v64h-83.2v-64h83.2z m274.88-149.632c24.384 17.024 40.704 43.712 44.608 77.696l0.512 19.712-83.2 2.048-0.192-15.68a22.4 22.4 0 0 0-9.408-15.616l47.68-68.16z m-312.96 0c-24.384 17.024-40.704 43.712-44.672 77.696l-0.448 19.712 83.2 2.048 0.128-15.68a22.4 22.4 0 0 1 9.472-15.616l-47.68-68.16zM716.8 57.216v83.2h-64v-83.2h64z m102.4 0v83.2h-64v-83.2h64z" p-id="7593"></path><path fill="currentColor" d="M832 569.216c58.304 0 105.6 47.36 105.6 105.6v192a105.6 105.6 0 0 1-105.6 105.6h-192a105.6 105.6 0 0 1-105.6-105.6v-192c0-58.24 47.296-105.6 105.6-105.6h192z m0 83.2h-192a22.4 22.4 0 0 0-22.4 22.4v192c0 12.416 10.048 22.4 22.4 22.4h192a22.4 22.4 0 0 0 22.4-22.4v-192a22.4 22.4 0 0 0-22.4-22.4z" p-id="7594"></path><path fill="currentColor"  d="M872.32 613.76l49.92 66.56-33.28 24.96-256 192-33.28 24.96-49.92-66.56 33.28-24.96 256-192z" p-id="7595"></path></svg>